<?xml version="1.0" encoding="UTF-8" standalone="no"?>
<svg width="20px" height="20px" viewBox="0 0 20 20" version="1.1" xmlns="http://www.w3.org/2000/svg" xmlns:xlink="http://www.w3.org/1999/xlink">
    <defs>
      <linearGradient id="Gradient1">
        <stop class="stop1" offset="0%"/>
        <stop class="stop3" offset="100%"/>
      </linearGradient>
      <linearGradient id="Gradient2" x1="0" x2="1" y1="0" y2="0">
        <stop offset="0%" stop-color="#85f0e9"/>
        <stop offset="100%" stop-color="#79bcda"/>
      </linearGradient>
      <style type="text/css"><![CDATA[
        #rect1 { fill: url(#Gradient1); }
        .stop1 { stop-color: #85f0e9; }
        .stop3 { stop-color: #79bcda; }
      ]]></style>
  </defs>
    <!-- Generator: Sketch 3.7.2 (28276) - http://www.bohemiancoding.com/sketch -->
    <title>education</title>
    <desc>Created with Sketch.</desc>
    <g id="Page-1" stroke="none" stroke-width="1" fill="none" fill-rule="evenodd">
        <g id="education" fill="url(#Gradient2)">
            <path d="M3.33333333,8 L10,12 L20,6 L10,0 L-5.55111512e-16,6 L10,6 L10,6.5 L10,8 L3.33333333,8 L3.33333333,8 Z M1.33226763e-15,8 L1.33226763e-15,16 L2,13.7777778 L2,9.2 L2,9.2 L1.33226763e-15,8 L1.11022302e-16,8 L1.33226763e-15,8 Z M10,20 L5,16.9999998 L3,15.8 L3,9.8 L10,14 L17,9.8 L17,15.8 L10,20 L10,20 Z" id="Combined-Shape"></path>
        </g>
    </g>
</svg>