<?xml version="1.0" encoding="UTF-8" standalone="no"?>
<svg width="20px" height="20px" viewBox="0 0 20 20" version="1.1" xmlns="http://www.w3.org/2000/svg" xmlns:xlink="http://www.w3.org/1999/xlink">
    <!-- Generator: Sketch 3.7.2 (28276) - http://www.bohemiancoding.com/sketch -->
    <title>pen-tool</title>
    <desc>Created with Sketch.</desc>
    <defs>
      <linearGradient id="Gradient1">
        <stop class="stop1" offset="0%"/>
        <stop class="stop3" offset="100%"/>
      </linearGradient>
      <linearGradient id="Gradient2" x1="0" x2="1" y1="0" y2="0">
        <stop offset="0%" stop-color="#85f0e9"/>
        <stop offset="100%" stop-color="#79bcda"/>
      </linearGradient>
      <style type="text/css"><![CDATA[
        #rect1 { fill: url(#Gradient1); }
        .stop1 { stop-color: #85f0e9; }
        .stop3 { stop-color: #79bcda; }
      ]]></style>
  </defs>
    <g id="Page-1" stroke="none" stroke-width="1" fill="none" fill-rule="evenodd">
        <g id="pen-tool" fill="url(#Gradient2)">
            <path d="M11,9.26756439 L11,0 L9,0 L9,9.26756439 C8.40219863,9.61337381 8,10.2597176 8,11 C8,12.1045695 8.8954305,13 10,13 C11.1045695,13 12,12.1045695 12,11 C12,10.2597176 11.5978014,9.61337381 11,9.26756439 Z M3,11 L9,0 L11,0 L17,11 L13,17 L7,17 L3,11 Z M6,18 L14,18 L14,20 L6,20 L6,18 Z" id="Combined-Shape"></path>
        </g>
    </g>
</svg>