<?xml version="1.0" encoding="UTF-8" standalone="no"?>
<svg width="20px" height="20px" viewBox="0 0 20 20" version="1.1" xmlns="http://www.w3.org/2000/svg" xmlns:xlink="http://www.w3.org/1999/xlink">
    <!-- Generator: Sketch 3.7.2 (28276) - http://www.bohemiancoding.com/sketch -->
    <title>time</title>
    <desc>Created with Sketch.</desc>
    <defs>
      <linearGradient id="Gradient1">
        <stop class="stop1" offset="0%"/>
        <stop class="stop3" offset="100%"/>
      </linearGradient>
      <linearGradient id="Gradient2" x1="0" x2="1" y1="0" y2="0">
        <stop offset="0%" stop-color="#85f0e9"/>
        <stop offset="100%" stop-color="#79bcda"/>
      </linearGradient>
      <style type="text/css"><![CDATA[
        #rect1 { fill: url(#Gradient1); }
        .stop1 { stop-color: #85f0e9; }
        .stop3 { stop-color: #79bcda; }
      ]]></style>
  </defs>
    <g id="Page-1" stroke="none" stroke-width="1" fill="none" fill-rule="evenodd">
        <g id="time" fill="url(#Gradient2)">
            <path d="M9,8.5 L9,4 L11,4 L11,9.58578644 L14.9497475,13.5355339 L13.5355339,14.9497475 L9,10.4142136 L9,8.5 Z M10,20 C15.5228475,20 20,15.5228475 20,10 C20,4.4771525 15.5228475,0 10,0 C4.4771525,0 0,4.4771525 0,10 C0,15.5228475 4.4771525,20 10,20 Z M10,18 C14.418278,18 18,14.418278 18,10 C18,5.581722 14.418278,2 10,2 C5.581722,2 2,5.581722 2,10 C2,14.418278 5.581722,18 10,18 Z" id="Combined-Shape"></path>
        </g>
    </g>
</svg>